<?xml version="1.0" encoding="utf-8"?>
<svg width="1897px" height="1317px" viewBox="0 0 1897 1317" version="1.1" xmlns:xlink="http://www.w3.org/1999/xlink" xmlns="http://www.w3.org/2000/svg">
  <g id="mainlogo-2">
    <g id="mainlogo">
      <g id="mainlogo">
        <path d="M0 300.711C0 300.711 137.165 220.539 227.166 139.003C317.167 57.4667 337.258 18.4695 281.325 1.82142C225.393 -14.8266 211.236 88.1279 168.758 88.128C126.28 88.1281 153.503 3.7868 111.412 1.82258C69.3213 -0.141649 49.7614 29.5554 64.6862 88.1279C79.6108 146.7 281.325 163.759 281.325 188.969C281.325 214.179 50.0302 170.345 50.0301 188.968C50.0302 207.592 284.989 248.595 281.325 263.464C277.661 278.333 85.1143 238.439 64.6862 263.464C44.2581 288.49 204.386 280.831 227.166 300.712C249.945 320.592 162.652 301.393 141.147 327.966C119.642 354.539 141.147 407.003 141.147 407.003" transform="translate(1060.501 725.9966)" id="New-shape" fill="none" fill-rule="evenodd" stroke="#FFFFFF" stroke-width="27" stroke-linecap="round" />
        <path d="M176.591 457.332C176.591 457.332 126.777 538.528 61.0802 505.832C-4.61626 473.136 -3.29541 399.781 2.58026 347.865C8.45593 295.95 56.734 201.526 176.591 211.365C296.449 221.203 269.091 389.081 274.091 505.832C279.091 622.583 240.564 812.037 214.591 829.334C188.618 846.63 63.3329 898.233 119.08 703.365C174.828 508.498 440.92 94.3914 437.581 49.864C434.241 5.33653 355.591 -35.5114 346.091 49.8641C336.591 135.239 312.93 571.529 346.091 634.833C379.252 698.136 477.267 504.957 480.58 457.332C483.895 409.707 414.652 401.082 378.081 457.332C341.509 513.582 403.747 657.144 510.591 655.333C617.436 653.523 593.705 426.866 579.081 406.865C564.456 386.866 528.581 443.457 551.58 438.832C574.58 434.207 645.591 438.832 645.591 438.832C645.591 438.832 566.672 617.225 645.591 634.833C724.51 652.441 705.729 562.519 717.091 556.833C728.452 551.146 723.713 648.076 796.092 655.333C868.472 662.59 796.092 438.832 796.092 438.832C796.092 438.832 913.332 550.529 953.081 556.833C992.83 563.136 1004.58 530.707 994.08 505.832C983.581 480.957 917.682 450.792 895.581 457.332C873.48 463.872 835.282 506.752 848.081 556.833C859.357 600.957 913.73 639.357 953.081 634.833C992.432 630.309 1040.09 600.333 1040.09 600.333" transform="translate(57.41992 405.13477)" id="New-shape-2" fill="none" fill-rule="evenodd" stroke="#FFFFFF" stroke-width="27" stroke-linecap="round" />
        <path d="M465.655 766.342C465.655 766.342 446.037 707.124 465.655 659.342C485.273 611.559 700.247 565.164 695.654 347.842C691.062 130.519 548.905 9.34152 354.655 0.3415C160.404 -8.6585 10.6278 161.96 0.654038 307.842C-9.31972 453.723 97.8517 499.691 112.654 533.342C127.457 566.994 112.654 633.842 112.654 633.842" transform="translate(930.34607 207.1582)" id="New-shape" fill="none" fill-rule="evenodd" stroke="#FFFFFF" stroke-width="20" />
        <g id="Group" transform="translate(754.00024 62.5)">
          <path d="M0 101L10 0" transform="translate(554.49994 0)" id="Line" fill="none" fill-rule="evenodd" stroke="#FFFFFF" stroke-width="20" stroke-linecap="round" />
          <path d="M0 1L149 1" transform="translate(935.4998 526.49994)" id="Line-2" fill="none" fill-rule="evenodd" stroke="#FFFFFF" stroke-width="20" stroke-linecap="round" />
          <path d="M0 0L97 76" transform="translate(838.4999 753.99994)" id="Line-3" fill="none" fill-rule="evenodd" stroke="#FFFFFF" stroke-width="20" stroke-linecap="round" />
          <path d="M0 78.2998L137.9 0" transform="translate(872.09985 144.70018)" id="Line-4" fill="none" fill-rule="evenodd" stroke="#FFFFFF" stroke-width="20" stroke-linecap="round" />
          <path d="M137.5 31L0 0" transform="translate(0 338.99997)" id="Line-5" fill="none" fill-rule="evenodd" stroke="#FFFFFF" stroke-width="20" stroke-linecap="round" />
          <path d="M85.2 78.2998L0 0" transform="translate(176.29997 144.70018)" id="Line-6" fill="none" fill-rule="evenodd" stroke="#FFFFFF" stroke-width="20" stroke-linecap="round" />
        </g>
        <path d="M0 0L1897 0L1897 1317L0 1317L0 0Z" id="Rectangle" fill="none" fill-rule="evenodd" stroke="none" />
      </g>
    </g>
  </g>
</svg>