<?xml version="1.0" encoding="utf-8"?>
<svg width="369px" height="78px" viewBox="0 0 369 78" version="1.1" xmlns:xlink="http://www.w3.org/1999/xlink" xmlns="http://www.w3.org/2000/svg">
  <defs>
    <radialGradient gradientUnits="objectBoundingBox" cx="50%" cy="50%" fx="50%" fy="50%" r="33.89765%" gradientTransform="translate(0.5,0.5),scale(0.9814815,1),rotate(90.00004),scale(1,1.1783744),translate(-0.5,-0.5)" id="gradient_1">
      <stop offset="0%" stop-color="#FAA36F" />
      <stop offset="100%" stop-color="#FD5F00" />
    </radialGradient>
    <radialGradient gradientUnits="objectBoundingBox" cx="49.99996%" cy="50%" fx="49.99996%" fy="50%" r="34.706284%" gradientTransform="translate(0.4999996,0.5),scale(1,0.64742756),scale(1,1.4210184),translate(-0.4999996,-0.5)" id="gradient_2">
      <stop offset="0%" stop-color="#FAA36F" />
      <stop offset="100%" stop-color="#FD5F00" />
    </radialGradient>
    <radialGradient gradientUnits="objectBoundingBox" cx="50%" cy="50%" fx="50%" fy="50%" r="38.866764%" gradientTransform="translate(0.5,0.5),scale(0.9814815,1),rotate(90.00003),scale(1,1.1942841),translate(-0.5,-0.5)" id="gradient_3">
      <stop offset="0%" stop-color="#F8AA7B" />
      <stop offset="100%" stop-color="#FD5F00" />
    </radialGradient>
    <filter filterUnits="userSpaceOnUse" color-interpolation-filters="sRGB" id="filter_1">
      <feFlood flood-opacity="0" result="BackgroundImageFix" />
      <feColorMatrix in="SourceAlpha" type="matrix" values="0 0 0 0 0 0 0 0 0 0 0 0 0 0 0 0 0 0 127 0" />
      <feOffset dx="0" dy="2" />
      <feGaussianBlur stdDeviation="2" />
      <feColorMatrix type="matrix" values="0 0 0 0 0.39215687 0 0 0 0 0.39215687 0 0 0 0 0.39215687 0 0 0 0.49803922 0" />
      <feBlend mode="normal" in2="BackgroundImageFix" result="effect0_dropShadow" />
      <feBlend mode="normal" in="SourceGraphic" in2="effect0_dropShadow" result="shape" />
    </filter>
    <filter filterUnits="userSpaceOnUse" color-interpolation-filters="sRGB" id="filter_2">
      <feFlood flood-opacity="0" result="BackgroundImageFix" />
      <feBlend mode="normal" in="SourceGraphic" in2="BackgroundImageFix" result="shape" />
      <feColorMatrix in="SourceAlpha" type="matrix" values="0 0 0 0 0 0 0 0 0 0 0 0 0 0 0 0 0 0 127 0" result="hardAlpha" />
      <feMorphology radius="2" operator="erode" in="SourceAlpha" result="effect0_innerShadow" />
      <feOffset dx="0" dy="1" />
      <feGaussianBlur stdDeviation="1.5" />
      <feComposite in2="hardAlpha" operator="arithmetic" k2="-1" k3="1" />
      <feColorMatrix type="matrix" values="0 0 0 0 0.39215687 0 0 0 0 0.39215687 0 0 0 0 0.39215687 0 0 0 0.49803922 0" />
      <feBlend mode="normal" in2="shape" result="effect0_innerShadow" />
    </filter>
    <filter filterUnits="userSpaceOnUse" color-interpolation-filters="sRGB" id="filter_3">
      <feFlood flood-opacity="0" result="BackgroundImageFix" />
      <feColorMatrix in="SourceAlpha" type="matrix" values="0 0 0 0 0 0 0 0 0 0 0 0 0 0 0 0 0 0 127 0" />
      <feMorphology radius="2" operator="dilate" in="SourceAlpha" result="effect0_dropShadow" />
      <feOffset dx="0" dy="2" />
      <feGaussianBlur stdDeviation="2" />
      <feColorMatrix type="matrix" values="0 0 0 0 0.39215687 0 0 0 0 0.39215687 0 0 0 0 0.39215687 0 0 0 0.49803922 0" />
      <feBlend mode="normal" in2="BackgroundImageFix" result="effect0_dropShadow" />
      <feBlend mode="normal" in="SourceGraphic" in2="effect0_dropShadow" result="shape" />
    </filter>
    <path d="M37.999 0L329.001 0Q329.934 0 330.866 0.0457715Q331.797 0.0915429 332.726 0.182976Q333.654 0.274408 334.577 0.411282Q335.499 0.548155 336.414 0.73014Q337.329 0.912125 338.234 1.13878Q339.139 1.36544 340.032 1.63622Q340.924 1.90701 341.802 2.22127Q342.681 2.53553 343.543 2.8925Q344.404 3.24948 345.248 3.64831Q346.091 4.04714 346.914 4.48687Q347.736 4.9266 348.536 5.40617Q349.336 5.88574 350.112 6.40399Q350.888 6.92223 351.637 7.47792Q352.386 8.0336 353.107 8.62538Q353.828 9.21715 354.52 9.8436Q355.211 10.47 355.87 11.1296Q356.53 11.7893 357.156 12.4804Q357.783 13.1716 358.375 13.8927Q358.966 14.6138 359.522 15.363Q360.078 16.1123 360.596 16.8879Q361.114 17.6635 361.594 18.4636Q362.073 19.2637 362.513 20.0864Q362.953 20.9091 363.352 21.7523Q363.75 22.5956 364.107 23.4574Q364.464 24.3192 364.779 25.1975Q365.093 26.0758 365.364 26.9685Q365.635 27.8611 365.861 28.766Q366.088 29.6709 366.27 30.5858Q366.452 31.5007 366.589 32.4234Q366.726 33.3461 366.817 34.2744Q366.908 35.2028 366.954 36.1345Q367 37.0662 367 37.999L367 38.001Q367 38.9338 366.954 39.8655Q366.908 40.7972 366.817 41.7256Q366.726 42.6539 366.589 43.5766Q366.452 44.4993 366.27 45.4142Q366.088 46.3291 365.861 47.234Q365.635 48.1389 365.364 49.0315Q365.093 49.9242 364.779 50.8025Q364.464 51.6808 364.107 52.5426Q363.75 53.4044 363.352 54.2477Q362.953 55.0909 362.513 55.9136Q362.073 56.7363 361.594 57.5364Q361.114 58.3365 360.596 59.1121Q360.078 59.8877 359.522 60.637Q358.966 61.3862 358.375 62.1073Q357.783 62.8284 357.156 63.5196Q356.53 64.2107 355.87 64.8703Q355.211 65.53 354.52 66.1564Q353.828 66.7828 353.107 67.3746Q352.386 67.9664 351.637 68.5221Q350.888 69.0778 350.112 69.596Q349.336 70.1143 348.536 70.5938Q347.736 71.0734 346.914 71.5131Q346.091 71.9528 345.248 72.3517Q344.404 72.7505 343.543 73.1075Q342.681 73.4645 341.802 73.7787Q340.924 74.093 340.032 74.3638Q339.139 74.6345 338.234 74.8612Q337.329 75.0879 336.414 75.2699Q335.499 75.4518 334.577 75.5887Q333.654 75.7256 332.726 75.817Q331.797 75.9084 330.866 75.9542Q329.934 76 329.001 76L37.999 76Q37.0662 76 36.1345 75.9542Q35.2028 75.9084 34.2744 75.817Q33.3461 75.7256 32.4234 75.5887Q31.5007 75.4518 30.5858 75.2699Q29.6709 75.0879 28.766 74.8612Q27.8611 74.6345 26.9685 74.3638Q26.0758 74.093 25.1975 73.7787Q24.3192 73.4645 23.4574 73.1075Q22.5956 72.7505 21.7523 72.3517Q20.9091 71.9528 20.0864 71.5131Q19.2637 71.0734 18.4636 70.5938Q17.6635 70.1143 16.8879 69.596Q16.1123 69.0778 15.363 68.5221Q14.6138 67.9664 13.8927 67.3746Q13.1716 66.7828 12.4804 66.1564Q11.7893 65.53 11.1296 64.8703Q10.47 64.2107 9.8436 63.5196Q9.21715 62.8284 8.62538 62.1073Q8.0336 61.3862 7.47792 60.637Q6.92223 59.8877 6.40399 59.1121Q5.88574 58.3365 5.40617 57.5364Q4.9266 56.7363 4.48687 55.9136Q4.04714 55.0909 3.64831 54.2477Q3.24948 53.4044 2.8925 52.5426Q2.53553 51.6808 2.22127 50.8025Q1.90701 49.9242 1.63622 49.0315Q1.36544 48.1389 1.13878 47.234Q0.912125 46.3291 0.73014 45.4142Q0.548155 44.4993 0.411282 43.5766Q0.274408 42.6539 0.182976 41.7256Q0.0915429 40.7972 0.0457715 39.8655Q0 38.9338 0 38.001L0 37.999Q0 37.0662 0.0457715 36.1345Q0.0915429 35.2028 0.182976 34.2744Q0.274408 33.3461 0.411282 32.4234Q0.548155 31.5007 0.73014 30.5858Q0.912125 29.6709 1.13878 28.766Q1.36544 27.8611 1.63622 26.9685Q1.90701 26.0758 2.22127 25.1975Q2.53553 24.3192 2.8925 23.4574Q3.24948 22.5956 3.64831 21.7523Q4.04714 20.9091 4.48687 20.0864Q4.9266 19.2637 5.40617 18.4636Q5.88574 17.6635 6.40399 16.8879Q6.92223 16.1123 7.47792 15.363Q8.0336 14.6138 8.62538 13.8927Q9.21715 13.1716 9.8436 12.4804Q10.47 11.7893 11.1296 11.1296Q11.7893 10.47 12.4804 9.8436Q13.1716 9.21715 13.8927 8.62538Q14.6138 8.0336 15.363 7.47792Q16.1123 6.92223 16.8879 6.40399Q17.6635 5.88574 18.4636 5.40617Q19.2637 4.9266 20.0864 4.48687Q20.9091 4.04714 21.7523 3.64831Q22.5956 3.24948 23.4574 2.8925Q24.3192 2.53553 25.1975 2.22127Q26.0758 1.90701 26.9685 1.63622Q27.8611 1.36544 28.766 1.13878Q29.6709 0.912125 30.5858 0.73014Q31.5007 0.548155 32.4234 0.411282Q33.3461 0.274408 34.2744 0.182976Q35.2028 0.0915429 36.1345 0.0457715Q37.0662 0 37.999 0Z" id="path_1" />
  </defs>
  <g id="Group" transform="translate(0.75 0.75)">
    <g id="Rectangle" filter="url(#filter_1)">
      <use stroke="none" fill="#D9FAFF" xlink:href="#path_1" fill-rule="evenodd" filter="url(#filter_2)" />
      <use xlink:href="#path_1" fill="none" stroke="#00204A" stroke-width="1.5" />
    </g>
    <path d="M7.999 0L46.001 0Q46.1974 0 46.3935 0.00963514Q46.5896 0.0192703 46.785 0.0385174Q46.9805 0.0577644 47.1747 0.0865771Q47.3689 0.11539 47.5615 0.153699Q47.7541 0.192007 47.9446 0.23972Q48.1351 0.287433 48.323 0.344434Q48.5109 0.401436 48.6958 0.467589Q48.8807 0.533742 49.0621 0.608888Q49.2435 0.684033 49.421 0.76799Q49.5985 0.851946 49.7717 0.944512Q49.9449 1.03708 50.1133 1.13803Q50.2817 1.23898 50.445 1.34807Q50.6083 1.45717 50.766 1.57414Q50.9237 1.69112 51.0755 1.81569Q51.2273 1.94026 51.3728 2.07213Q51.5183 2.204 51.6571 2.34285Q51.796 2.4817 51.9279 2.6272Q52.0597 2.7727 52.1843 2.92449Q52.3089 3.07628 52.4258 3.234Q52.5428 3.39172 52.6519 3.55499Q52.761 3.71826 52.862 3.88669Q52.9629 4.05512 53.0555 4.2283Q53.1481 4.40148 53.232 4.57899Q53.316 4.7565 53.3911 4.93791Q53.4662 5.11933 53.5324 5.30422Q53.5986 5.4891 53.6556 5.67701Q53.7126 5.86492 53.7603 6.0554Q53.808 6.24588 53.8463 6.43847Q53.8846 6.63106 53.9134 6.8253Q53.9422 7.01954 53.9615 7.21496Q53.9807 7.41038 53.9904 7.60651Q54 7.80264 54 7.999L54 45.001Q54 45.1974 53.9904 45.3935Q53.9807 45.5896 53.9615 45.785Q53.9422 45.9805 53.9134 46.1747Q53.8846 46.3689 53.8463 46.5615Q53.808 46.7541 53.7603 46.9446Q53.7126 47.1351 53.6556 47.323Q53.5986 47.5109 53.5324 47.6958Q53.4662 47.8807 53.3911 48.0621Q53.316 48.2435 53.232 48.421Q53.1481 48.5985 53.0555 48.7717Q52.9629 48.9449 52.862 49.1133Q52.761 49.2817 52.6519 49.445Q52.5428 49.6083 52.4258 49.766Q52.3089 49.9237 52.1843 50.0755Q52.0597 50.2273 51.9279 50.3728Q51.796 50.5183 51.6571 50.6571Q51.5183 50.796 51.3728 50.9279Q51.2273 51.0597 51.0755 51.1843Q50.9237 51.3089 50.766 51.4259Q50.6083 51.5428 50.445 51.6519Q50.2817 51.761 50.1133 51.862Q49.9449 51.9629 49.7717 52.0555Q49.5985 52.148 49.421 52.232Q49.2435 52.316 49.0621 52.3911Q48.8807 52.4663 48.6958 52.5324Q48.5109 52.5986 48.323 52.6556Q48.1351 52.7126 47.9446 52.7603Q47.7541 52.808 47.5615 52.8463Q47.3689 52.8846 47.1747 52.9134Q46.9805 52.9422 46.785 52.9615Q46.5896 52.9807 46.3935 52.9904Q46.1974 53 46.001 53L7.999 53Q7.80264 53 7.60651 52.9904Q7.41038 52.9807 7.21496 52.9615Q7.01954 52.9422 6.8253 52.9134Q6.63106 52.8846 6.43847 52.8463Q6.24588 52.808 6.0554 52.7603Q5.86492 52.7126 5.67701 52.6556Q5.4891 52.5986 5.30422 52.5324Q5.11933 52.4662 4.93791 52.3911Q4.7565 52.316 4.57899 52.232Q4.40148 52.148 4.2283 52.0555Q4.05512 51.9629 3.88669 51.862Q3.71826 51.761 3.55499 51.6519Q3.39172 51.5428 3.234 51.4258Q3.07628 51.3089 2.92449 51.1843Q2.7727 51.0597 2.6272 50.9279Q2.4817 50.796 2.34285 50.6571Q2.204 50.5183 2.07213 50.3728Q1.94026 50.2273 1.81569 50.0755Q1.69112 49.9237 1.57414 49.766Q1.45717 49.6083 1.34807 49.445Q1.23898 49.2817 1.13803 49.1133Q1.03708 48.9449 0.944512 48.7717Q0.851946 48.5985 0.76799 48.421Q0.684033 48.2435 0.608888 48.0621Q0.533742 47.8807 0.467589 47.6958Q0.401436 47.5109 0.344434 47.323Q0.287433 47.1351 0.23972 46.9446Q0.192007 46.7541 0.153699 46.5615Q0.11539 46.3689 0.0865771 46.1747Q0.0577644 45.9805 0.0385174 45.785Q0.0192703 45.5896 0.00963514 45.3935Q0 45.1974 0 45.001L0 7.999Q0 7.80264 0.00963514 7.60651Q0.0192703 7.41038 0.0385174 7.21496Q0.0577644 7.01954 0.0865771 6.8253Q0.11539 6.63106 0.153699 6.43847Q0.192007 6.24588 0.23972 6.0554Q0.287433 5.86492 0.344434 5.67701Q0.401436 5.4891 0.467589 5.30422Q0.533742 5.11933 0.608888 4.93791Q0.684033 4.7565 0.76799 4.57899Q0.851946 4.40148 0.944512 4.2283Q1.03708 4.05512 1.13803 3.88669Q1.23898 3.71826 1.34807 3.55499Q1.45717 3.39172 1.57414 3.234Q1.69112 3.07628 1.81569 2.92449Q1.94026 2.7727 2.07213 2.6272Q2.204 2.4817 2.34285 2.34285Q2.4817 2.204 2.6272 2.07213Q2.7727 1.94026 2.92449 1.81569Q3.07628 1.69112 3.234 1.57414Q3.39172 1.45717 3.55499 1.34807Q3.71826 1.23898 3.88669 1.13803Q4.05512 1.03708 4.2283 0.944512Q4.40148 0.851946 4.57899 0.76799Q4.7565 0.684033 4.93791 0.608888Q5.11933 0.533742 5.30422 0.467589Q5.4891 0.401436 5.67701 0.344434Q5.86492 0.287433 6.0554 0.23972Q6.24588 0.192007 6.43847 0.153699Q6.63106 0.11539 6.8253 0.0865771Q7.01954 0.0577644 7.21496 0.0385174Q7.41038 0.0192703 7.60651 0.00963514Q7.80264 0 7.999 0L7.999 0Z" transform="translate(57 10)" id="Rectangle-2" fill="url(#gradient_1)" fill-rule="evenodd" stroke="#808080" stroke-width="1" filter="url(#filter_3)" />
    <path d="M35.0132 0.6137C35.0132 0.6137 -0.786774 -6.48642 0.0132138 27.6137C0.813201 61.7138 35.0132 53.1137 35.0132 53.1137L35.0132 0.6137Z" transform="translate(11.986755 8.919495)" id="New-shape" fill="url(#gradient_2)" fill-rule="evenodd" stroke="#808080" stroke-width="1" filter="url(#filter_3)" />
    <path d="M7.999 0L46.001 0Q46.1974 0 46.3935 0.00963514Q46.5896 0.0192703 46.785 0.0385174Q46.9805 0.0577644 47.1747 0.0865771Q47.3689 0.11539 47.5615 0.153699Q47.7541 0.192007 47.9446 0.23972Q48.1351 0.287433 48.323 0.344434Q48.5109 0.401436 48.6958 0.467589Q48.8807 0.533742 49.0621 0.608888Q49.2435 0.684033 49.421 0.76799Q49.5985 0.851946 49.7717 0.944512Q49.9449 1.03708 50.1133 1.13803Q50.2817 1.23898 50.445 1.34807Q50.6083 1.45717 50.766 1.57414Q50.9237 1.69112 51.0755 1.81569Q51.2273 1.94026 51.3728 2.07213Q51.5183 2.204 51.6571 2.34285Q51.796 2.4817 51.9279 2.6272Q52.0597 2.7727 52.1843 2.92449Q52.3089 3.07628 52.4258 3.234Q52.5428 3.39172 52.6519 3.55499Q52.761 3.71826 52.862 3.88669Q52.9629 4.05512 53.0555 4.2283Q53.1481 4.40148 53.232 4.57899Q53.316 4.7565 53.3911 4.93791Q53.4662 5.11933 53.5324 5.30422Q53.5986 5.4891 53.6556 5.67701Q53.7126 5.86492 53.7603 6.0554Q53.808 6.24588 53.8463 6.43847Q53.8846 6.63106 53.9134 6.8253Q53.9422 7.01954 53.9615 7.21496Q53.9807 7.41038 53.9904 7.60651Q54 7.80264 54 7.999L54 45.001Q54 45.1974 53.9904 45.3935Q53.9807 45.5896 53.9615 45.785Q53.9422 45.9805 53.9134 46.1747Q53.8846 46.3689 53.8463 46.5615Q53.808 46.7541 53.7603 46.9446Q53.7126 47.1351 53.6556 47.323Q53.5986 47.5109 53.5324 47.6958Q53.4662 47.8807 53.3911 48.0621Q53.316 48.2435 53.232 48.421Q53.1481 48.5985 53.0555 48.7717Q52.9629 48.9449 52.862 49.1133Q52.761 49.2817 52.6519 49.445Q52.5428 49.6083 52.4258 49.766Q52.3089 49.9237 52.1843 50.0755Q52.0597 50.2273 51.9279 50.3728Q51.796 50.5183 51.6571 50.6571Q51.5183 50.796 51.3728 50.9279Q51.2273 51.0597 51.0755 51.1843Q50.9237 51.3089 50.766 51.4259Q50.6083 51.5428 50.445 51.6519Q50.2817 51.761 50.1133 51.862Q49.9449 51.9629 49.7717 52.0555Q49.5985 52.148 49.421 52.232Q49.2435 52.316 49.0621 52.3911Q48.8807 52.4663 48.6958 52.5324Q48.5109 52.5986 48.323 52.6556Q48.1351 52.7126 47.9446 52.7603Q47.7541 52.808 47.5615 52.8463Q47.3689 52.8846 47.1747 52.9134Q46.9805 52.9422 46.785 52.9615Q46.5896 52.9807 46.3935 52.9904Q46.1974 53 46.001 53L7.999 53Q7.80264 53 7.60651 52.9904Q7.41038 52.9807 7.21496 52.9615Q7.01954 52.9422 6.8253 52.9134Q6.63106 52.8846 6.43847 52.8463Q6.24588 52.808 6.0554 52.7603Q5.86492 52.7126 5.67701 52.6556Q5.4891 52.5986 5.30422 52.5324Q5.11933 52.4662 4.93791 52.3911Q4.7565 52.316 4.57899 52.232Q4.40148 52.148 4.2283 52.0555Q4.05512 51.9629 3.88669 51.862Q3.71826 51.761 3.55499 51.6519Q3.39172 51.5428 3.234 51.4258Q3.07628 51.3089 2.92449 51.1843Q2.7727 51.0597 2.6272 50.9279Q2.4817 50.796 2.34285 50.6571Q2.204 50.5183 2.07213 50.3728Q1.94026 50.2273 1.81569 50.0755Q1.69112 49.9237 1.57414 49.766Q1.45717 49.6083 1.34807 49.445Q1.23898 49.2817 1.13803 49.1133Q1.03708 48.9449 0.944512 48.7717Q0.851946 48.5985 0.76799 48.421Q0.684033 48.2435 0.608888 48.0621Q0.533742 47.8807 0.467589 47.6958Q0.401436 47.5109 0.344434 47.323Q0.287433 47.1351 0.23972 46.9446Q0.192007 46.7541 0.153699 46.5615Q0.11539 46.3689 0.0865771 46.1747Q0.0577644 45.9805 0.0385174 45.785Q0.0192703 45.5896 0.00963514 45.3935Q0 45.1974 0 45.001L0 7.999Q0 7.80264 0.00963514 7.60651Q0.0192703 7.41038 0.0385174 7.21496Q0.0577644 7.01954 0.0865771 6.8253Q0.11539 6.63106 0.153699 6.43847Q0.192007 6.24588 0.23972 6.0554Q0.287433 5.86492 0.344434 5.67701Q0.401436 5.4891 0.467589 5.30422Q0.533742 5.11933 0.608888 4.93791Q0.684033 4.7565 0.76799 4.57899Q0.851946 4.40148 0.944512 4.2283Q1.03708 4.05512 1.13803 3.88669Q1.23898 3.71826 1.34807 3.55499Q1.45717 3.39172 1.57414 3.234Q1.69112 3.07628 1.81569 2.92449Q1.94026 2.7727 2.07213 2.6272Q2.204 2.4817 2.34285 2.34285Q2.4817 2.204 2.6272 2.07213Q2.7727 1.94026 2.92449 1.81569Q3.07628 1.69112 3.234 1.57414Q3.39172 1.45717 3.55499 1.34807Q3.71826 1.23898 3.88669 1.13803Q4.05512 1.03708 4.2283 0.944512Q4.40148 0.851946 4.57899 0.76799Q4.7565 0.684033 4.93791 0.608888Q5.11933 0.533742 5.30422 0.467589Q5.4891 0.401436 5.67701 0.344434Q5.86492 0.287433 6.0554 0.23972Q6.24588 0.192007 6.43847 0.153699Q6.63106 0.11539 6.8253 0.0865771Q7.01954 0.0577644 7.21496 0.0385174Q7.41038 0.0192703 7.60651 0.00963514Q7.80264 0 7.999 0L7.999 0Z" transform="translate(121 10)" id="Rectangle-3" fill="url(#gradient_3)" fill-rule="evenodd" stroke="#808080" stroke-width="1" filter="url(#filter_3)" />
    <path d="M7.999 0L46.001 0Q46.1974 0 46.3935 0.00963514Q46.5896 0.0192703 46.785 0.0385174Q46.9805 0.0577644 47.1747 0.0865771Q47.3689 0.11539 47.5615 0.153699Q47.7541 0.192007 47.9446 0.23972Q48.1351 0.287433 48.323 0.344434Q48.5109 0.401436 48.6958 0.467589Q48.8807 0.533742 49.0621 0.608888Q49.2435 0.684033 49.421 0.76799Q49.5985 0.851946 49.7717 0.944512Q49.9449 1.03708 50.1133 1.13803Q50.2817 1.23898 50.445 1.34807Q50.6083 1.45717 50.766 1.57414Q50.9237 1.69112 51.0755 1.81569Q51.2273 1.94026 51.3728 2.07213Q51.5183 2.204 51.6571 2.34285Q51.796 2.4817 51.9279 2.6272Q52.0597 2.7727 52.1843 2.92449Q52.3089 3.07628 52.4258 3.234Q52.5428 3.39172 52.6519 3.55499Q52.761 3.71826 52.862 3.88669Q52.9629 4.05512 53.0555 4.2283Q53.1481 4.40148 53.232 4.57899Q53.316 4.7565 53.3911 4.93791Q53.4662 5.11933 53.5324 5.30422Q53.5986 5.4891 53.6556 5.67701Q53.7126 5.86492 53.7603 6.0554Q53.808 6.24588 53.8463 6.43847Q53.8846 6.63106 53.9134 6.8253Q53.9422 7.01954 53.9615 7.21496Q53.9807 7.41038 53.9904 7.60651Q54 7.80264 54 7.999L54 45.001Q54 45.1974 53.9904 45.3935Q53.9807 45.5896 53.9615 45.785Q53.9422 45.9805 53.9134 46.1747Q53.8846 46.3689 53.8463 46.5615Q53.808 46.7541 53.7603 46.9446Q53.7126 47.1351 53.6556 47.323Q53.5986 47.5109 53.5324 47.6958Q53.4662 47.8807 53.3911 48.0621Q53.316 48.2435 53.232 48.421Q53.1481 48.5985 53.0555 48.7717Q52.9629 48.9449 52.862 49.1133Q52.761 49.2817 52.6519 49.445Q52.5428 49.6083 52.4258 49.766Q52.3089 49.9237 52.1843 50.0755Q52.0597 50.2273 51.9279 50.3728Q51.796 50.5183 51.6571 50.6571Q51.5183 50.796 51.3728 50.9279Q51.2273 51.0597 51.0755 51.1843Q50.9237 51.3089 50.766 51.4259Q50.6083 51.5428 50.445 51.6519Q50.2817 51.761 50.1133 51.862Q49.9449 51.9629 49.7717 52.0555Q49.5985 52.148 49.421 52.232Q49.2435 52.316 49.0621 52.3911Q48.8807 52.4663 48.6958 52.5324Q48.5109 52.5986 48.323 52.6556Q48.1351 52.7126 47.9446 52.7603Q47.7541 52.808 47.5615 52.8463Q47.3689 52.8846 47.1747 52.9134Q46.9805 52.9422 46.785 52.9615Q46.5896 52.9807 46.3935 52.9904Q46.1974 53 46.001 53L7.999 53Q7.80264 53 7.60651 52.9904Q7.41038 52.9807 7.21496 52.9615Q7.01954 52.9422 6.8253 52.9134Q6.63106 52.8846 6.43847 52.8463Q6.24588 52.808 6.0554 52.7603Q5.86492 52.7126 5.67701 52.6556Q5.4891 52.5986 5.30422 52.5324Q5.11933 52.4662 4.93791 52.3911Q4.7565 52.316 4.57899 52.232Q4.40148 52.148 4.2283 52.0555Q4.05512 51.9629 3.88669 51.862Q3.71826 51.761 3.55499 51.6519Q3.39172 51.5428 3.234 51.4258Q3.07628 51.3089 2.92449 51.1843Q2.7727 51.0597 2.6272 50.9279Q2.4817 50.796 2.34285 50.6571Q2.204 50.5183 2.07213 50.3728Q1.94026 50.2273 1.81569 50.0755Q1.69112 49.9237 1.57414 49.766Q1.45717 49.6083 1.34807 49.445Q1.23898 49.2817 1.13803 49.1133Q1.03708 48.9449 0.944512 48.7717Q0.851946 48.5985 0.76799 48.421Q0.684033 48.2435 0.608888 48.0621Q0.533742 47.8807 0.467589 47.6958Q0.401436 47.5109 0.344434 47.323Q0.287433 47.1351 0.23972 46.9446Q0.192007 46.7541 0.153699 46.5615Q0.11539 46.3689 0.0865771 46.1747Q0.0577644 45.9805 0.0385174 45.785Q0.0192703 45.5896 0.00963514 45.3935Q0 45.1974 0 45.001L0 7.999Q0 7.80264 0.00963514 7.60651Q0.0192703 7.41038 0.0385174 7.21496Q0.0577644 7.01954 0.0865771 6.8253Q0.11539 6.63106 0.153699 6.43847Q0.192007 6.24588 0.23972 6.0554Q0.287433 5.86492 0.344434 5.67701Q0.401436 5.4891 0.467589 5.30422Q0.533742 5.11933 0.608888 4.93791Q0.684033 4.7565 0.76799 4.57899Q0.851946 4.40148 0.944512 4.2283Q1.03708 4.05512 1.13803 3.88669Q1.23898 3.71826 1.34807 3.55499Q1.45717 3.39172 1.57414 3.234Q1.69112 3.07628 1.81569 2.92449Q1.94026 2.7727 2.07213 2.6272Q2.204 2.4817 2.34285 2.34285Q2.4817 2.204 2.6272 2.07213Q2.7727 1.94026 2.92449 1.81569Q3.07628 1.69112 3.234 1.57414Q3.39172 1.45717 3.55499 1.34807Q3.71826 1.23898 3.88669 1.13803Q4.05512 1.03708 4.2283 0.944512Q4.40148 0.851946 4.57899 0.76799Q4.7565 0.684033 4.93791 0.608888Q5.11933 0.533742 5.30422 0.467589Q5.4891 0.401436 5.67701 0.344434Q5.86492 0.287433 6.0554 0.23972Q6.24588 0.192007 6.43847 0.153699Q6.63106 0.11539 6.8253 0.0865771Q7.01954 0.0577644 7.21496 0.0385174Q7.41038 0.0192703 7.60651 0.00963514Q7.80264 0 7.999 0L7.999 0Z" transform="translate(190 10)" id="Rectangle-4" fill="url(#gradient_3)" fill-rule="evenodd" stroke="#808080" stroke-width="1" filter="url(#filter_3)" />
    <path d="M7.999 0L46.001 0Q46.1974 0 46.3935 0.00963514Q46.5896 0.0192703 46.785 0.0385174Q46.9805 0.0577644 47.1747 0.0865771Q47.3689 0.11539 47.5615 0.153699Q47.7541 0.192007 47.9446 0.23972Q48.1351 0.287433 48.323 0.344434Q48.5109 0.401436 48.6958 0.467589Q48.8807 0.533742 49.0621 0.608888Q49.2435 0.684033 49.421 0.76799Q49.5985 0.851946 49.7717 0.944512Q49.9449 1.03708 50.1133 1.13803Q50.2817 1.23898 50.445 1.34807Q50.6083 1.45717 50.766 1.57414Q50.9237 1.69112 51.0755 1.81569Q51.2273 1.94026 51.3728 2.07213Q51.5183 2.204 51.6571 2.34285Q51.796 2.4817 51.9279 2.6272Q52.0597 2.7727 52.1843 2.92449Q52.3089 3.07628 52.4258 3.234Q52.5428 3.39172 52.6519 3.55499Q52.761 3.71826 52.862 3.88669Q52.9629 4.05512 53.0555 4.2283Q53.1481 4.40148 53.232 4.57899Q53.316 4.7565 53.3911 4.93791Q53.4662 5.11933 53.5324 5.30422Q53.5986 5.4891 53.6556 5.67701Q53.7126 5.86492 53.7603 6.0554Q53.808 6.24588 53.8463 6.43847Q53.8846 6.63106 53.9134 6.8253Q53.9422 7.01954 53.9615 7.21496Q53.9807 7.41038 53.9904 7.60651Q54 7.80264 54 7.999L54 45.001Q54 45.1974 53.9904 45.3935Q53.9807 45.5896 53.9615 45.785Q53.9422 45.9805 53.9134 46.1747Q53.8846 46.3689 53.8463 46.5615Q53.808 46.7541 53.7603 46.9446Q53.7126 47.1351 53.6556 47.323Q53.5986 47.5109 53.5324 47.6958Q53.4662 47.8807 53.3911 48.0621Q53.316 48.2435 53.232 48.421Q53.1481 48.5985 53.0555 48.7717Q52.9629 48.9449 52.862 49.1133Q52.761 49.2817 52.6519 49.445Q52.5428 49.6083 52.4258 49.766Q52.3089 49.9237 52.1843 50.0755Q52.0597 50.2273 51.9279 50.3728Q51.796 50.5183 51.6571 50.6571Q51.5183 50.796 51.3728 50.9279Q51.2273 51.0597 51.0755 51.1843Q50.9237 51.3089 50.766 51.4259Q50.6083 51.5428 50.445 51.6519Q50.2817 51.761 50.1133 51.862Q49.9449 51.9629 49.7717 52.0555Q49.5985 52.148 49.421 52.232Q49.2435 52.316 49.0621 52.3911Q48.8807 52.4663 48.6958 52.5324Q48.5109 52.5986 48.323 52.6556Q48.1351 52.7126 47.9446 52.7603Q47.7541 52.808 47.5615 52.8463Q47.3689 52.8846 47.1747 52.9134Q46.9805 52.9422 46.785 52.9615Q46.5896 52.9807 46.3935 52.9904Q46.1974 53 46.001 53L7.999 53Q7.80264 53 7.60651 52.9904Q7.41038 52.9807 7.21496 52.9615Q7.01954 52.9422 6.8253 52.9134Q6.63106 52.8846 6.43847 52.8463Q6.24588 52.808 6.0554 52.7603Q5.86492 52.7126 5.67701 52.6556Q5.4891 52.5986 5.30422 52.5324Q5.11933 52.4662 4.93791 52.3911Q4.7565 52.316 4.57899 52.232Q4.40148 52.148 4.2283 52.0555Q4.05512 51.9629 3.88669 51.862Q3.71826 51.761 3.55499 51.6519Q3.39172 51.5428 3.234 51.4258Q3.07628 51.3089 2.92449 51.1843Q2.7727 51.0597 2.6272 50.9279Q2.4817 50.796 2.34285 50.6571Q2.204 50.5183 2.07213 50.3728Q1.94026 50.2273 1.81569 50.0755Q1.69112 49.9237 1.57414 49.766Q1.45717 49.6083 1.34807 49.445Q1.23898 49.2817 1.13803 49.1133Q1.03708 48.9449 0.944512 48.7717Q0.851946 48.5985 0.76799 48.421Q0.684033 48.2435 0.608888 48.0621Q0.533742 47.8807 0.467589 47.6958Q0.401436 47.5109 0.344434 47.323Q0.287433 47.1351 0.23972 46.9446Q0.192007 46.7541 0.153699 46.5615Q0.11539 46.3689 0.0865771 46.1747Q0.0577644 45.9805 0.0385174 45.785Q0.0192703 45.5896 0.00963514 45.3935Q0 45.1974 0 45.001L0 7.999Q0 7.80264 0.00963514 7.60651Q0.0192703 7.41038 0.0385174 7.21496Q0.0577644 7.01954 0.0865771 6.8253Q0.11539 6.63106 0.153699 6.43847Q0.192007 6.24588 0.23972 6.0554Q0.287433 5.86492 0.344434 5.67701Q0.401436 5.4891 0.467589 5.30422Q0.533742 5.11933 0.608888 4.93791Q0.684033 4.7565 0.76799 4.57899Q0.851946 4.40148 0.944512 4.2283Q1.03708 4.05512 1.13803 3.88669Q1.23898 3.71826 1.34807 3.55499Q1.45717 3.39172 1.57414 3.234Q1.69112 3.07628 1.81569 2.92449Q1.94026 2.7727 2.07213 2.6272Q2.204 2.4817 2.34285 2.34285Q2.4817 2.204 2.6272 2.07213Q2.7727 1.94026 2.92449 1.81569Q3.07628 1.69112 3.234 1.57414Q3.39172 1.45717 3.55499 1.34807Q3.71826 1.23898 3.88669 1.13803Q4.05512 1.03708 4.2283 0.944512Q4.40148 0.851946 4.57899 0.76799Q4.7565 0.684033 4.93791 0.608888Q5.11933 0.533742 5.30422 0.467589Q5.4891 0.401436 5.67701 0.344434Q5.86492 0.287433 6.0554 0.23972Q6.24588 0.192007 6.43847 0.153699Q6.63106 0.11539 6.8253 0.0865771Q7.01954 0.0577644 7.21496 0.0385174Q7.41038 0.0192703 7.60651 0.00963514Q7.80264 0 7.999 0L7.999 0Z" transform="translate(254 10)" id="Rectangle-5" fill="url(#gradient_3)" fill-rule="evenodd" stroke="#808080" stroke-width="1" filter="url(#filter_3)" />
  </g>
</svg>